<svg xmlns="http://www.w3.org/2000/svg" viewBox="0 0 482.57 482.57"><defs><style>.cls-1{fill:#383838;}.cls-2{fill:#3cacde;}</style></defs><g id="Layer_2" data-name="Layer 2"><g id="Layer_2-2" data-name="Layer 2"><path class="cls-1" d="M241.28,0C108,0,0,108,0,241.28S108,482.57,241.28,482.57s241.29-108,241.29-241.29S374.54,0,241.28,0ZM241,454.23C123.2,454.23,27.72,358.76,27.72,241S123.2,27.72,241,27.72,454.23,123.2,454.23,241,358.76,454.23,241,454.23Z"/><path class="cls-2" d="M141.36,227.88l41.43,34.73,63.37-98.71,75.55,121.25L365,253.47l43.87,66.41A177.38,177.38,0,0,0,429,243.11c.23-8.24.83-49.78-24.38-94.44-27.35-48.48-67.87-70.08-76.16-74.34C274.07,46.46,222.89,55.48,207.16,58.49c-18.57,3.56-64.36,15.14-103,55.45-33,34.5-43.34,71.78-45.7,81a180.84,180.84,0,0,0-4.26,64,183.37,183.37,0,0,0,21.32,67.63Z"/></g></g></svg>